<svg id="Layer_1" data-name="Layer 1" xmlns="http://www.w3.org/2000/svg" xmlns:xlink="http://www.w3.org/1999/xlink" viewBox="0 0 177.71 207.2"><defs><style>.cls-1{fill:url(#linear-gradient);}.cls-2{fill:url(#linear-gradient-2);}.cls-3{fill:#534741;fill-opacity:0.72;}.cls-10,.cls-4{fill:#fff;}.cls-5{fill:#603813;}.cls-6{fill:none;stroke:#000;stroke-miterlimit:10;}.cls-7{fill:url(#linear-gradient-3);}.cls-8{fill:#42210b;}.cls-9{fill-opacity:0.62;}.cls-10{fill-opacity:0.5;}</style><linearGradient id="linear-gradient" x1="205.95" y1="376" x2="345.58" y2="376" gradientTransform="translate(0 -160)" gradientUnits="userSpaceOnUse"><stop offset="0" stop-color="#d49c7f"/><stop offset="0.28" stop-color="#d89f81"/><stop offset="1" stop-color="#dba183"/></linearGradient><linearGradient id="linear-gradient-2" x1="984.27" y1="344.65" x2="999.57" y2="344.65" gradientTransform="matrix(-1, 0, 0, 1, 1198.31, -160)" xlink:href="#linear-gradient"/><linearGradient id="linear-gradient-3" x1="340.96" y1="344.65" x2="356.27" y2="344.65" xlink:href="#linear-gradient"/></defs><title>julius2d-face</title><g id="slide1"><path id="face" class="cls-1" d="M212.1,132c-11.9,14-3.3,120.1-.8,130.1S258,279,258,279v21h34V279s45.1-6.9,47.6-16.9,12-116.1.2-130.1H212.1Z" transform="translate(-198.69 -92.8)"/><path id="ear.L" class="cls-2" d="M207.4,187.8s-9.1,8-7.7,11c0.9,1.9,6.6,1.8,8.3.7,3.6-2.2,6-15.7,6-15.7s-8.1-16.1-12.7-14.7c-2.3.7-4,6-1,9.7" transform="translate(-198.69 -92.8)"/><path id="face.shade" class="cls-3" d="M226.3,263.3c-2.3-10-12.5-115.9-3.1-130.2l53.8-1.3H211.6c-11,13.7-2.1,120.2.2,130.2s46.3,17,46.3,17v21h8.1l-0.5-20.7C265.8,279.3,228.7,273.2,226.3,263.3Z" transform="translate(-198.69 -92.8)"/><g id="eye_brow"><path d="M295.6,145.4l0.2,0.4a6.57,6.57,0,0,0,.6,1.2,8.3,8.3,0,0,0,1.3,1.6,11.6,11.6,0,0,0,2.1,1.6,25.76,25.76,0,0,0,6,2.8,42.14,42.14,0,0,0,7.4,1.8c1.3,0.2,2.6.4,3.8,0.6s2.5,0.3,3.7.4c2.4,0.2,4.7.4,6.7,0.4s3.6,0.1,4.7.1h1.8s-0.7.1-1.8,0.2-2.8.3-4.8,0.3-4.3.1-6.7-.1a52,52,0,0,1-7.7-.9,43.38,43.38,0,0,1-7.5-2,30.46,30.46,0,0,1-6-3.1,10.22,10.22,0,0,1-3.2-3.6,5.13,5.13,0,0,1-.5-1.2A1.75,1.75,0,0,1,295.6,145.4Z" transform="translate(-198.69 -92.8)"/></g><g id="eye_brow-2" data-name="eye_brow"><path d="M257.8,145.4a1.21,1.21,0,0,0-.1.5c-0.1.3-.2,0.7-0.4,1.3a3.51,3.51,0,0,1-.5.8c-0.1.2-.2,0.3-0.3,0.5s-0.2.3-.4,0.5-0.5.7-.8,1-0.7.6-1.1,1a14.62,14.62,0,0,1-1.3.9,5.3,5.3,0,0,1-1.5.8,16.38,16.38,0,0,1-3.3,1.4,22.38,22.38,0,0,1-3.7,1c-1.3.3-2.6,0.5-3.9,0.7s-2.6.4-3.9,0.5l-3.8.3c-1.2.1-2.4,0.1-3.6,0.1H226c-2,0-3.6-.1-4.8-0.2s-1.8-.1-1.8-0.1,2.6-.1,6.6-0.3c2-.1,4.3-0.2,6.7-0.4l3.8-.3c1.3-.1,2.6-0.3,3.9-0.5s2.6-.4,3.8-0.7,2.5-.6,3.6-0.9a32.09,32.09,0,0,0,3.3-1.2,6.11,6.11,0,0,0,1.4-.7c0.4-.3.9-0.5,1.3-0.8s0.7-.6,1.1-0.9l0.9-.9,0.4-.4a1.38,1.38,0,0,1,.3-0.4,3.51,3.51,0,0,0,.5-0.8c0.3-.5.4-0.9,0.6-1.2A3.23,3.23,0,0,1,257.8,145.4Z" transform="translate(-198.69 -92.8)"/></g><g id="eye.R"><ellipse id="eye_bg" class="cls-4" cx="316.79" cy="181.09" rx="18.5" ry="15" transform="matrix(1, -0.03, 0.03, 1, -203.43, -84.25)"/><g id="pupil"><circle class="cls-5" cx="118.81" cy="88.6" r="9.7"/><circle cx="119.11" cy="88.7" r="3.8"/></g></g><g id="eye.L"><ellipse id="eye_bg-2" data-name="eye_bg" class="cls-4" cx="240.73" cy="181.04" rx="15" ry="18.5" transform="translate(-145.38 324.04) rotate(-88.47)"/><g id="pupil-2" data-name="pupil"><circle class="cls-5" cx="45.21" cy="88.6" r="9.7"/><circle cx="46.91" cy="88.7" r="3.8"/></g></g><path class="cls-6" d="M273.7,208.9s10.9,10.2,10,14.5c-0.6,2.9-10,6-10,6" transform="translate(-198.69 -92.8)"/><path id="mouth" class="cls-4" d="M307.9,240.9s0,24.5-31.6,24.5-31.6-24.5-31.6-24.5a147.13,147.13,0,0,0,31.6,3.5A146,146,0,0,0,307.9,240.9Z" transform="translate(-198.69 -92.8)"/><path id="ear.R" class="cls-7" d="M347.6,187.8s9.1,8,7.7,11c-0.9,1.9-6.6,1.8-8.3.7-3.6-2.2-6-15.7-6-15.7s8.1-16.1,12.7-14.7c2.3,0.7,4,6,1,9.7" transform="translate(-198.69 -92.8)"/><path id="hair" class="cls-8" d="M274.3,105.7l-24.5,6s-30.3-.4-39.9,7.6c-7.9,6.5-7.2,76.7-7.2,76.7h8.4s-0.3-38.4-.6-42.1,3.8-16.8,6.3-18.1,98.2-.4,102.9,0c4.9,1.3,15.7,9.5,15.7,12s6.4,48.3,6.4,48.3h7.3l-2.6-64.2,17.3-16.6-15.2,7.4,15.2-14.6h12.6L347.5,97.9l-30.4,26,9.9-11.6-10.9,5,19.4-12.5,4.2-12-7.9,7.5-33.8,14,3.8-6.5-5.2,3.5-28.4,1.5Z" transform="translate(-198.69 -92.8)"/><path class="cls-9" d="M266.6,115.2l-20.1,3.4s-29.2,14.2-27.1,13.5,80.6-.2,84.5,0c4,0.7,22-2.3,22-2.3l14.2-9.2-12.5,4.5,18.3-10.2-44.2,10.7,8.1-6.6-9,2.8,16-7,3.5-6.8-6.5,4.2L286,120l3.2-3.7-4.3,2-23.3.8Z" transform="translate(-198.69 -92.8)"/><g id="eye.highlights.L"><circle class="cls-10" cx="39.41" cy="81" r="6"/><circle class="cls-10" cx="31.41" cy="85" r="3"/></g><g id="eye.highlights.R"><circle class="cls-10" cx="115.61" cy="81" r="6"/><circle class="cls-10" cx="107.51" cy="85" r="3"/></g></g></svg>